<svg xmlns="http://www.w3.org/2000/svg" viewBox="0 0 64 64" width="64px" height="64px">
    <g data-name="Color copy 2">
        <path fill="#fdc741" d="M32,6h0A24,24,0,0,1,56,30v0a0,0,0,0,1,0,0H8a0,0,0,0,1,0,0v0A24,24,0,0,1,32,6Z"/>
        <path fill="#79bd9a" d="M32,6h0A24,24,0,0,1,56,30v0a0,0,0,0,1,0,0H8a0,0,0,0,1,0,0v0A24,24,0,0,1,32,6Z"/>
        <path fill="#fff"
              d="M52.61,40a20.856,20.856,0,0,1-.77,2.84l3.81,2.2-4,6.92-3.81-2.2a22.685,22.685,0,0,1-2.08,2.08l2.2,3.81-6.92,4-2.2-3.81a20.856,20.856,0,0,1-2.84.77V61H28V56.61a20.856,20.856,0,0,1-2.84-.77l-2.2,3.81-6.92-4,2.2-3.81a22.685,22.685,0,0,1-2.08-2.08l-3.81,2.2-4-6.92,3.81-2.2A20.856,20.856,0,0,1,11.39,40H7V36H20a12,12,0,0,0,24,0H57v4Z"/>
        <path fill="#cff09e"
              d="M46.86,53.75l1.1,1.9-6.92,4-2.2-3.81a20.856,20.856,0,0,1-2.84.77V61H28V56.61a20.856,20.856,0,0,1-2.84-.77l-2.2,3.81-6.92-4,2.2-3.81a22.685,22.685,0,0,1-2.08-2.08l-3.81,2.2-4-6.92,3.81-2.2A20.856,20.856,0,0,1,11.39,40H7V36H20a11.858,11.858,0,0,0,.38,3h-7.5A28.525,28.525,0,0,0,46.86,53.75Z"/>
        <rect width="58" height="6" x="3" y="30" fill="#a8dba8" rx="3"/>
        <path fill="#a8dba8" d="M36,19H28L27.133,5.125a2,2,0,0,1,2-2.125h5.742a2,2,0,0,1,2,2.125Z"/>
        <path fill="#a8dba8"
              d="M41.789,19.224l3.759,1.368,5.2-9.488a2,2,0,0,0-1.07-2.841L46.547,7.122A2,2,0,0,0,43.9,8.611Z"/>
        <path fill="#cff09e" d="M48,36a16,16,0,0,1-32,0h4a12,12,0,0,0,24,0Z"/>
        <path fill="#cff09e" d="M57,36v3H43.62A11.858,11.858,0,0,0,44,36Z"/>
        <path fill="#a8dba8"
              d="M22.211,19.224l-3.759,1.368L13.247,11.1a2,2,0,0,1,1.07-2.841l3.136-1.141A2,2,0,0,1,20.1,8.611Z"/>
    </g>
    <g data-name="Stroke Close copy">
        <path fill="#3b8686"
              d="M58,29H56.976A24.867,24.867,0,0,0,50.65,13.371l.98-1.786a3,3,0,0,0-1.605-4.261L46.889,6.182a2.972,2.972,0,0,0-3.7,1.483,24.694,24.694,0,0,0-5.357-1.959l.032-.519A3,3,0,0,0,34.871,2H29.129a3,3,0,0,0-2.994,3.188l.032.518A24.694,24.694,0,0,0,20.81,7.665a2.972,2.972,0,0,0-3.7-1.483L13.975,7.323a3,3,0,0,0-1.605,4.262l.98,1.786A24.867,24.867,0,0,0,7.024,29H6a4,4,0,0,0,0,8v3a1,1,0,0,0,1,1h3.583c.109.462.234.923.375,1.379l-3.108,1.8a1,1,0,0,0-.366,1.367l4,6.919a1,1,0,0,0,1.366.366l3.112-1.8q.491.519,1.009,1.009l-1.8,3.112a1,1,0,0,0,.366,1.366l6.919,4a1,1,0,0,0,1.367-.366l1.795-3.108c.456.141.917.266,1.379.375V61a1,1,0,0,0,1,1h8a1,1,0,0,0,1-1V57.417c.462-.109.923-.234,1.379-.375l1.8,3.108a1,1,0,0,0,1.367.366l6.919-4a1,1,0,0,0,.366-1.366l-1.8-3.112q.519-.49,1.009-1.009l3.112,1.8a1,1,0,0,0,1.366-.366l4-6.919a1,1,0,0,0-.366-1.367l-3.108-1.8c.141-.456.266-.917.375-1.379H57a1,1,0,0,0,1-1V37a4,4,0,0,0,0-8ZM9.362,26H14a1,1,0,0,0,0-2H9.81a22.865,22.865,0,0,1,4.575-8.742l3.19,5.815a1,1,0,0,0,1.754-.962l-5.2-9.487A1,1,0,0,1,14.659,9.2L17.8,8.061a1,1,0,0,1,1.323.745l2.111,10.613a1,1,0,1,0,1.962-.39L21.325,9.648a22.794,22.794,0,0,1,4.969-1.916L27,19.063a1,1,0,0,0,2-.125L28.131,5.063a1,1,0,0,1,1-1.063h5.742a1,1,0,0,1,1,1.063L35,18.938A1,1,0,0,0,35.938,20c.021,0,.042,0,.063,0a1,1,0,0,0,1-.937l.708-11.331a22.794,22.794,0,0,1,4.969,1.916l-1.866,9.381a1,1,0,1,0,1.962.39L44.882,8.806a1,1,0,0,1,1.323-.745L49.341,9.2a1,1,0,0,1,.535,1.421l-5.2,9.487a1,1,0,0,0,1.754.962l3.19-5.815A22.865,22.865,0,0,1,54.19,24H50a1,1,0,0,0,0,2h4.638a23.176,23.176,0,0,1,.315,3H9.047A23.176,23.176,0,0,1,9.362,26ZM56,39H52.61a1,1,0,0,0-.982.808,19.877,19.877,0,0,1-.732,2.7,1,1,0,0,0,.444,1.2l2.944,1.7-3,5.188-2.944-1.7a1,1,0,0,0-1.252.206A21.194,21.194,0,0,1,45.1,51.088a1,1,0,0,0-.206,1.252l1.7,2.944-5.188,3-1.7-2.944a1,1,0,0,0-1.2-.444,19.877,19.877,0,0,1-2.7.732A1,1,0,0,0,35,56.61V60H29V56.61a1,1,0,0,0-.808-.982,19.877,19.877,0,0,1-2.7-.732,1,1,0,0,0-1.2.444l-1.7,2.944-5.188-3,1.7-2.944a1,1,0,0,0-.206-1.252A21.315,21.315,0,0,1,16.912,49.1a1,1,0,0,0-1.252-.206l-2.944,1.7-3-5.188,2.944-1.7a1,1,0,0,0,.444-1.2,19.877,19.877,0,0,1-.732-2.7A1,1,0,0,0,11.39,39H8V37H19.038a13,13,0,0,0,25.924,0H56ZM21.051,37h21.9a10.994,10.994,0,0,1-21.9,0ZM58,35H6a2,2,0,0,1,0-4H58a2,2,0,0,1,0,4Z"/>
        <path fill="#3b8686" d="M36,24H28a1,1,0,0,0,0,2h8a1,1,0,0,0,0-2Z"/>
    </g>
</svg>